<?xml version="1.0" encoding="UTF-8"?>
<svg xmlns="http://www.w3.org/2000/svg" xmlns:xlink="http://www.w3.org/1999/xlink" width="12pt" height="12pt" viewBox="0 0 12 12" version="1.1">
<g id="surface1">
<path style=" stroke:none;fill-rule:nonzero;fill:rgb(1.176471%,0.392157%,1.568627%);fill-opacity:1;" d="M 8.945312 2.53125 C 9.40625 2.53125 9.777344 2.164062 9.777344 1.703125 L 9.777344 0.832031 C 9.777344 0.371094 9.40625 0 8.945312 0 C 8.484375 0 8.113281 0.371094 8.113281 0.832031 L 8.113281 1.703125 C 8.113281 2.164062 8.484375 2.53125 8.945312 2.53125 Z M 8.945312 2.53125 "/>
<path style=" stroke:none;fill-rule:nonzero;fill:rgb(1.176471%,0.392157%,1.568627%);fill-opacity:1;" d="M 11.902344 1.441406 L 10.226562 1.441406 L 10.226562 1.863281 C 10.226562 2.5625 9.660156 3.132812 8.960938 3.132812 C 8.257812 3.132812 7.691406 2.5625 7.691406 1.863281 L 7.691406 1.441406 L 4.3125 1.441406 L 4.3125 1.863281 C 4.3125 2.5625 3.742188 3.132812 3.042969 3.132812 C 2.34375 3.132812 1.777344 2.5625 1.777344 1.863281 L 1.777344 1.441406 L 0.0859375 1.417969 L 0.0859375 12 L 11.070312 12 L 11.914062 11.996094 Z M 11.070312 11.15625 L 0.929688 11.15625 L 0.929688 4.398438 L 11.070312 4.398438 Z M 11.070312 11.15625 "/>
<path style=" stroke:none;fill-rule:nonzero;fill:rgb(1.176471%,0.392157%,1.568627%);fill-opacity:1;" d="M 3.03125 2.53125 C 3.492188 2.53125 3.863281 2.164062 3.863281 1.703125 L 3.863281 0.832031 C 3.863281 0.371094 3.492188 0 3.03125 0 C 2.570312 0 2.199219 0.371094 2.199219 0.832031 L 2.199219 1.703125 C 2.199219 2.164062 2.570312 2.53125 3.03125 2.53125 Z M 3.03125 2.53125 "/>
<path style=" stroke:none;fill-rule:nonzero;fill:rgb(1.176471%,0.392157%,1.568627%);fill-opacity:1;" d="M 4.3125 5.304688 L 5.644531 5.304688 L 5.644531 6.480469 L 4.3125 6.480469 Z M 4.3125 5.304688 "/>
<path style=" stroke:none;fill-rule:nonzero;fill:rgb(1.176471%,0.392157%,1.568627%);fill-opacity:1;" d="M 6.46875 5.304688 L 7.800781 5.304688 L 7.800781 6.480469 L 6.46875 6.480469 Z M 6.46875 5.304688 "/>
<path style=" stroke:none;fill-rule:nonzero;fill:rgb(1.176471%,0.392157%,1.568627%);fill-opacity:1;" d="M 8.464844 5.304688 L 9.792969 5.304688 L 9.792969 6.480469 L 8.464844 6.480469 Z M 8.464844 5.304688 "/>
<path style=" stroke:none;fill-rule:nonzero;fill:rgb(1.176471%,0.392157%,1.568627%);fill-opacity:1;" d="M 4.3125 7.257812 L 5.644531 7.257812 L 5.644531 8.429688 L 4.3125 8.429688 Z M 4.3125 7.257812 "/>
<path style=" stroke:none;fill-rule:nonzero;fill:rgb(1.176471%,0.392157%,1.568627%);fill-opacity:1;" d="M 6.46875 7.257812 L 7.800781 7.257812 L 7.800781 8.429688 L 6.46875 8.429688 Z M 6.46875 7.257812 "/>
<path style=" stroke:none;fill-rule:nonzero;fill:rgb(1.176471%,0.392157%,1.568627%);fill-opacity:1;" d="M 8.464844 7.257812 L 9.792969 7.257812 L 9.792969 8.429688 L 8.464844 8.429688 Z M 8.464844 7.257812 "/>
<path style=" stroke:none;fill-rule:nonzero;fill:rgb(1.176471%,0.392157%,1.568627%);fill-opacity:1;" d="M 4.3125 9.246094 L 5.644531 9.246094 L 5.644531 10.421875 L 4.3125 10.421875 Z M 4.3125 9.246094 "/>
<path style=" stroke:none;fill-rule:nonzero;fill:rgb(1.176471%,0.392157%,1.568627%);fill-opacity:1;" d="M 2.199219 7.257812 L 3.527344 7.257812 L 3.527344 8.429688 L 2.199219 8.429688 Z M 2.199219 7.257812 "/>
<path style=" stroke:none;fill-rule:nonzero;fill:rgb(1.176471%,0.392157%,1.568627%);fill-opacity:1;" d="M 2.199219 9.246094 L 3.527344 9.246094 L 3.527344 10.421875 L 2.199219 10.421875 Z M 2.199219 9.246094 "/>
<path style=" stroke:none;fill-rule:nonzero;fill:rgb(1.176471%,0.392157%,1.568627%);fill-opacity:1;" d="M 6.46875 9.246094 L 7.800781 9.246094 L 7.800781 10.421875 L 6.46875 10.421875 Z M 6.46875 9.246094 "/>
<path style=" stroke:none;fill-rule:nonzero;fill:rgb(1.176471%,0.392157%,1.568627%);fill-opacity:1;" d="M 8.464844 9.246094 L 9.792969 9.246094 L 9.792969 10.421875 L 8.464844 10.421875 Z M 8.464844 9.246094 "/>
</g>
</svg>
